<?xml version="1.0" encoding="UTF-8" standalone="no"?>
<svg
   viewBox="0 0 540 540"
   width="540"
   height="540"
   version="1.1"
   id="svg1"
   sodipodi:docname="snapfx.svg"
   inkscape:version="1.4.3 (0d15f75, 2025-12-25)"
   inkscape:export-filename="16\snapfx.svg"
   inkscape:export-xdpi="96"
   inkscape:export-ydpi="96"
   xmlns:inkscape="http://www.inkscape.org/namespaces/inkscape"
   xmlns:sodipodi="http://sodipodi.sourceforge.net/DTD/sodipodi-0.dtd"
   xmlns="http://www.w3.org/2000/svg"
   xmlns:svg="http://www.w3.org/2000/svg">
  <defs
     id="defs1" />
  <sodipodi:namedview
     id="namedview1"
     pagecolor="#ffffff"
     bordercolor="#000000"
     borderopacity="0.25"
     inkscape:showpageshadow="2"
     inkscape:pageopacity="0.0"
     inkscape:pagecheckerboard="0"
     inkscape:deskcolor="#d1d1d1"
     showgrid="false"
     inkscape:zoom="0.54027778"
     inkscape:cx="-223.03342"
     inkscape:cy="329.46015"
     inkscape:window-width="2168"
     inkscape:window-height="1186"
     inkscape:window-x="2059"
     inkscape:window-y="103"
     inkscape:window-maximized="0"
     inkscape:current-layer="svg1" />
  <path
     d="m 158.88889,30 q 17.77778,0 17.77778,17.777778 V 70 q 0,17.777778 -17.77778,17.777778 h -53.33333 q -17.777782,0 -17.777782,17.777782 v 53.33333 q 0,17.77778 -17.777778,17.77778 H 47.777778 Q 30,176.66667 30,158.88889 V 47.777778 Q 30,30 47.777778,30 Z m 333.33333,0 H 381.11111 q -17.77778,0 -17.77778,17.777778 V 70 q 0,17.777778 17.77778,17.777778 h 53.33333 q 17.77778,0 17.77778,17.777782 v 53.33333 q 0,17.77778 17.77778,17.77778 h 22.22222 Q 510,176.66667 510,158.88889 V 47.777778 Q 510,30 492.22222,30 Z M 47.777778,510 H 158.88889 q 17.77778,0 17.77778,-17.77778 V 470 q 0,-17.77778 -17.77778,-17.77778 h -53.33333 q -17.777782,0 -17.777782,-17.77778 V 381.11111 Q 87.777778,363.33333 70,363.33333 H 47.777778 Q 30,363.33333 30,381.11111 V 492.22222 Q 30,510 47.777778,510 Z m 444.444442,0 H 381.11111 q -17.77778,0 -17.77778,-17.77778 V 470 q 0,-17.77778 17.77778,-17.77778 h 53.33333 q 17.77778,0 17.77778,-17.77778 v -53.33333 q 0,-17.77778 17.77778,-17.77778 h 22.22222 Q 510,363.33333 510,381.11111 V 492.22222 Q 510,510 492.22222,510 Z M 176.66667,141.11111 h 186.66666 q 35.55556,0 35.55556,35.55556 v 186.66666 q 0,35.55556 -35.55556,35.55556 H 176.66667 q -35.55556,0 -35.55556,-35.55556 V 176.66667 q 0,-35.55556 35.55556,-35.55556 z M 270,30 327.77778,87.777778 H 212.22222 Z m 240,240 -57.77778,57.77778 V 212.22222 Z M 270,510 212.22222,452.22222 H 327.77778 Z M 30,266.44444 87.777778,208.66667 v 115.55555 z"
     fill="currentColor"
     id="path1"
     style="fill:#3366bb;fill-opacity:1;stroke-width:0.888889" />
</svg>
